<?xml version="1.0" encoding="utf-8"?>
<!-- Generator: Adobe Illustrator 25.2.0, SVG Export Plug-In . SVG Version: 6.00 Build 0)  -->
<svg version="1.1" id="Livello_1" xmlns="http://www.w3.org/2000/svg" xmlns:xlink="http://www.w3.org/1999/xlink" x="0px" y="0px"
	 viewBox="0 0 640 640" style="enable-background:new 0 0 640 640;" xml:space="preserve">
<style type="text/css">
	.st0{fill:#E479DF;}
	.st1{fill:#A566E3;}
	.st2{fill:#68C5E0;}
	.st3{fill:none;stroke:#FFFFFF;stroke-width:6;stroke-miterlimit:10;}
	.st4{fill:#FFFFFF;}
</style>
<path class="st0" d="M613.7,351.8c0,147.5-119.6,267.1-267.1,267.1c-97.3,0-182.5-52-229.2-129.8c47,41.2,108.6,66.2,176,66.2
	c147.5,0,267.1-119.6,267.1-267.1c0-50.2-13.9-97.2-38-137.3C578.4,199.8,613.7,271.7,613.7,351.8z"/>
<path class="st1" d="M560.6,288.2c0,147.5-119.6,267.1-267.1,267.1c-67.4,0-129-25-176-66.2C93.3,449,79.4,402,79.4,351.8
	C79.4,204.3,199,84.7,346.6,84.7c67.4,0,129,25,176,66.2C546.7,191,560.6,238,560.6,288.2z"/>
<path class="st2" d="M522.6,150.9c-47-41.2-108.6-66.2-176-66.2C199,84.7,79.4,204.3,79.4,351.8c0,50.2,13.9,97.2,38,137.3
	c-55.8-49-91.1-120.8-91.1-200.9c0-147.5,119.6-267.1,267.1-267.1C390.8,21.1,475.9,73.1,522.6,150.9z"/>
<g>
	<g>
		<g>
			<path class="st3" d="M175.8,415.4c-19.7-28.4-31.3-62.8-31.3-100c0-96.9,78.5-175.4,175.4-175.4c19.2,0,37.7,3.1,55,8.8"/>
			<g>
				<polygon class="st4" points="354.4,173.2 413.9,167.2 379,118.6 				"/>
			</g>
		</g>
	</g>
	<g>
		<g>
			<path class="st3" d="M465.5,217.3c18.9,28,30,61.8,30,98.1c0,96.9-78.5,175.4-175.4,175.4c-14.5,0-28.5-1.7-41.9-5"/>
			<g>
				<polygon class="st4" points="296.7,459.8 237.8,470.4 276.5,516.1 				"/>
			</g>
		</g>
	</g>
</g>
<g>
	<path class="st3" d="M381.1,397.1H258.9c-11.4,0-20.6-9.2-20.6-20.6V254.3c0-11.4,9.2-20.6,20.6-20.6h122.1
		c11.4,0,20.6,9.2,20.6,20.6v122.1C401.7,387.8,392.4,397.1,381.1,397.1z"/>
	<line class="st3" x1="259.5" y1="286.6" x2="368.4" y2="286.6"/>
	<line class="st3" x1="259.5" y1="309.8" x2="368.4" y2="309.8"/>
	<line class="st3" x1="259.5" y1="332.9" x2="368.4" y2="332.9"/>
	<line class="st3" x1="259.5" y1="356.1" x2="368.4" y2="356.1"/>
</g>
</svg>
