<?xml version="1.0" encoding="utf-8"?>
<!-- Generator: Adobe Illustrator 24.0.0, SVG Export Plug-In . SVG Version: 6.00 Build 0)  -->
<svg version="1.1" id="Livello_1" xmlns="http://www.w3.org/2000/svg" xmlns:xlink="http://www.w3.org/1999/xlink" x="0px" y="0px"
	 viewBox="0 0 640 640" style="enable-background:new 0 0 640 640;" xml:space="preserve">
<style type="text/css">
	.st0{fill:#E479DF;}
	.st1{fill:#A566E3;}
	.st2{fill:#68C5E0;}
	.st3{fill:#FFFFFF;}
</style>
<path class="st0" d="M613.7,351.8c0,147.5-119.6,267.1-267.1,267.1c-97.3,0-182.5-52-229.2-129.8c47,41.2,108.6,66.2,176,66.2
	c147.5,0,267.1-119.6,267.1-267.1c0-50.2-13.9-97.2-38-137.3C578.4,199.8,613.7,271.7,613.7,351.8z"/>
<path class="st1" d="M560.6,288.2c0,147.5-119.6,267.1-267.1,267.1c-67.4,0-129-25-176-66.2C93.3,449,79.4,402,79.4,351.8
	C79.4,204.3,199,84.7,346.6,84.7c67.4,0,129,25,176,66.2C546.7,191,560.6,238,560.6,288.2z"/>
<path class="st2" d="M522.6,150.9c-47-41.2-108.6-66.2-176-66.2C199,84.7,79.4,204.3,79.4,351.8c0,50.2,13.9,97.2,38,137.3
	c-55.8-49-91.1-120.8-91.1-200.9c0-147.5,119.6-267.1,267.1-267.1C390.8,21.1,475.9,73.1,522.6,150.9z"/>
<g>
	<path class="st3" d="M459.3,253v85.7c0,2.7-0.9,5.1-2.7,7.1c-1.8,2.1-4.1,3.3-6.9,3.6L275,369.8c0.1,0.8,0.4,2,0.8,3.6
		c0.4,1.6,0.7,3.1,1,4.4c0.3,1.3,0.4,2.6,0.4,3.7c0,1.8-1.3,5.4-4,10.7h154c2.9,0,5.4,1.1,7.5,3.2c2.1,2.1,3.2,4.6,3.2,7.5
		c0,2.9-1.1,5.4-3.2,7.5c-2.1,2.1-4.6,3.2-7.5,3.2H255.7c-2.9,0-5.4-1.1-7.5-3.2c-2.1-2.1-3.2-4.6-3.2-7.5c0-1.6,0.6-3.8,1.8-6.6
		c1.2-2.8,2.9-6.2,4.9-10c2.1-3.8,3.2-5.9,3.4-6.4l-29.6-137.8h-34.2c-2.9,0-5.4-1.1-7.5-3.2c-2.1-2.1-3.2-4.6-3.2-7.5
		c0-2.9,1.1-5.4,3.2-7.5c2.1-2.1,4.6-3.2,7.5-3.2h42.9c1.8,0,3.4,0.4,4.8,1.1c1.4,0.7,2.5,1.6,3.3,2.6c0.8,1,1.6,2.4,2.2,4.1
		c0.6,1.7,1,3.2,1.3,4.4c0.2,1.2,0.5,2.9,0.9,4.9c0.4,2.1,0.6,3.5,0.8,4.3h201.1c2.9,0,5.4,1.1,7.5,3.2
		C458.2,247.5,459.3,250.1,459.3,253z M281.6,419.9c4.2,4.2,6.3,9.2,6.3,15.2s-2.1,11-6.3,15.2c-4.2,4.2-9.2,6.3-15.2,6.3
		c-5.9,0-11-2.1-15.2-6.3c-4.2-4.2-6.3-9.2-6.3-15.2s2.1-11,6.3-15.2c4.2-4.2,9.2-6.3,15.2-6.3C272.3,413.7,277.4,415.8,281.6,419.9
		z M381.1,303.3c2.1-2.1,3.2-4.6,3.2-7.5c0-2.9-1.1-5.4-3.2-7.5c-2.1-2.1-4.6-3.2-7.5-3.2h-21.4v-21.4c0-2.9-1.1-5.4-3.2-7.5
		c-2.1-2.1-4.6-3.2-7.5-3.2c-2.9,0-5.4,1.1-7.5,3.2c-2.1,2.1-3.2,4.6-3.2,7.5v21.4h-21.4c-2.9,0-5.4,1.1-7.5,3.2
		c-2.1,2.1-3.2,4.6-3.2,7.5c0,2.9,1.1,5.4,3.2,7.5c2.1,2.1,4.6,3.2,7.5,3.2h21.4V328c0,2.9,1.1,5.4,3.2,7.5c2.1,2.1,4.6,3.2,7.5,3.2
		c2.9,0,5.4-1.1,7.5-3.2c2.1-2.1,3.2-4.6,3.2-7.5v-21.4h21.4C376.5,306.5,379,305.5,381.1,303.3z M431.6,419.9
		c4.2,4.2,6.3,9.2,6.3,15.2s-2.1,11-6.3,15.2c-4.2,4.2-9.2,6.3-15.2,6.3c-5.9,0-11-2.1-15.2-6.3c-4.2-4.2-6.3-9.2-6.3-15.2
		s2.1-11,6.3-15.2c4.2-4.2,9.2-6.3,15.2-6.3C422.3,413.7,427.4,415.8,431.6,419.9z"/>
</g>
</svg>
