<?xml version="1.0" encoding="utf-8"?>
<!-- Generator: Adobe Illustrator 25.2.0, SVG Export Plug-In . SVG Version: 6.00 Build 0)  -->
<svg version="1.1" id="Livello_1" xmlns="http://www.w3.org/2000/svg" xmlns:xlink="http://www.w3.org/1999/xlink" x="0px" y="0px"
	 viewBox="0 0 640 640" style="enable-background:new 0 0 640 640;" xml:space="preserve">
<style type="text/css">
	.st0{fill:#E479DF;}
	.st1{fill:#A566E3;}
	.st2{fill:#68C5E0;}
	.st3{fill:#FFFFFF;}
	.st4{fill:none;stroke:#FFFFFF;stroke-width:8;stroke-linecap:round;stroke-miterlimit:10;}
</style>
<path class="st0" d="M613.7,351.8c0,147.5-119.6,267.1-267.1,267.1c-97.3,0-182.5-52-229.2-129.8c47,41.2,108.6,66.2,176,66.2
	c147.5,0,267.1-119.6,267.1-267.1c0-50.2-13.9-97.2-38-137.3C578.4,199.8,613.7,271.7,613.7,351.8z"/>
<path class="st1" d="M560.6,288.2c0,147.5-119.6,267.1-267.1,267.1c-67.4,0-129-25-176-66.2C93.3,449,79.4,402,79.4,351.8
	C79.4,204.3,199,84.7,346.6,84.7c67.4,0,129,25,176,66.2C546.7,191,560.6,238,560.6,288.2z"/>
<path class="st2" d="M522.6,150.9c-47-41.2-108.6-66.2-176-66.2C199,84.7,79.4,204.3,79.4,351.8c0,50.2,13.9,97.2,38,137.3
	c-55.8-49-91.1-120.8-91.1-200.9c0-147.5,119.6-267.1,267.1-267.1C390.8,21.1,475.9,73.1,522.6,150.9z"/>
<g>
	<g>
		<path class="st3" d="M395.8,248.6c16.1,0,29.1,13.1,29.1,29.1v114.6v2.2c-1.1,15-13.7,26.9-29,26.9H252.1
			c-16.1,0-29.1-13.1-29.1-29.1V277.7c0-16.1,13.1-29.1,29.1-29.1H395.8 M395.8,237.6H252.1c-22.1,0-40.1,18.1-40.1,40.1v114.6
			c0,22.1,18.1,40.1,40.1,40.1h143.8c22.1,0,40.1-18.1,40.1-40.1h-0.1V277.7C435.9,255.7,417.9,237.6,395.8,237.6L395.8,237.6z"/>
	</g>
</g>
<g>
	<polyline class="st4" points="476.7,372 501,335 476.7,298 	"/>
	<polyline class="st4" points="163.3,298 139,335 163.3,372 	"/>
</g>
<rect x="248.4" y="277" class="st4" width="64" height="104.6"/>
<rect x="333.6" y="353.9" class="st4" width="64" height="27.7"/>
<line class="st4" x1="332.4" y1="329.1" x2="409" y2="329.1"/>
<line class="st4" x1="332.4" y1="312.5" x2="409" y2="312.5"/>
<line class="st4" x1="332.4" y1="295.9" x2="409" y2="295.9"/>
<line class="st4" x1="332.4" y1="279.3" x2="409" y2="279.3"/>
</svg>
