<?xml version="1.0" encoding="utf-8"?>
<!-- Generator: Adobe Illustrator 25.2.0, SVG Export Plug-In . SVG Version: 6.00 Build 0)  -->
<svg version="1.1" id="Livello_1" xmlns="http://www.w3.org/2000/svg" xmlns:xlink="http://www.w3.org/1999/xlink" x="0px" y="0px"
	 viewBox="0 0 640 640" style="enable-background:new 0 0 640 640;" xml:space="preserve">
<style type="text/css">
	.st0{fill:#E479DF;}
	.st1{fill:#A566E3;}
	.st2{fill:#68C5E0;}
	.st3{fill:#FFFFFF;}
</style>
<path class="st0" d="M613.7,351.8c0,147.5-119.6,267.1-267.1,267.1c-97.3,0-182.5-52-229.2-129.8c47,41.2,108.6,66.2,176,66.2
	c147.5,0,267.1-119.6,267.1-267.1c0-50.2-13.9-97.2-38-137.3C578.4,199.8,613.7,271.7,613.7,351.8z"/>
<path class="st1" d="M560.6,288.2c0,147.5-119.6,267.1-267.1,267.1c-67.4,0-129-25-176-66.2C93.3,449,79.4,402,79.4,351.8
	C79.4,204.3,199,84.7,346.6,84.7c67.4,0,129,25,176,66.2C546.7,191,560.6,238,560.6,288.2z"/>
<path class="st2" d="M522.6,150.9c-47-41.2-108.6-66.2-176-66.2C199,84.7,79.4,204.3,79.4,351.8c0,50.2,13.9,97.2,38,137.3
	c-55.8-49-91.1-120.8-91.1-200.9c0-147.5,119.6-267.1,267.1-267.1C390.8,21.1,475.9,73.1,522.6,150.9z"/>
<g>
	<path class="st3" d="M244.9,297.3c0,14.6-4.3,25.9-12.9,33.9c-8.6,8-20.9,12-36.8,12h-9.9v43.5h-35.4v-131h45.3
		c16.5,0,29,3.6,37.3,10.8C240.7,273.7,244.9,284,244.9,297.3z M185.2,314.3h6.5c5.3,0,9.5-1.5,12.7-4.5c3.1-3,4.7-7.1,4.7-12.4
		c0-8.8-4.9-13.3-14.7-13.3h-9.1V314.3z"/>
</g>
<g>
	<path class="st3" d="M510.2,297.3c0,14.6-4.3,25.9-12.9,33.9c-8.6,8-20.9,12-36.8,12h-9.9v43.5h-35.4v-131h45.3
		c16.5,0,29,3.6,37.3,10.8C506,273.7,510.2,284,510.2,297.3z M450.5,314.3h6.5c5.3,0,9.5-1.5,12.7-4.5c3.1-3,4.7-7.1,4.7-12.4
		c0-8.8-4.9-13.3-14.7-13.3h-9.1V314.3z"/>
</g>
<g>
	<path class="st3" d="M336.4,257.8l16.2,32.8l36.2,5.3c6.5,0.9,9.1,9,4.4,13.5L367,335l6.2,36.1c1.1,6.5-5.8,11.4-11.5,8.4l-32.4-17
		l-32.4,17c-5.8,3-12.6-1.8-11.5-8.4l6.2-36.1l-26.2-25.5c-4.7-4.6-2.1-12.6,4.4-13.5l36.2-5.3l16.2-32.8
		C325.1,251.9,333.5,251.9,336.4,257.8z"/>
</g>
</svg>
