<?xml version="1.0" encoding="utf-8"?>
<!-- Generator: Adobe Illustrator 24.0.0, SVG Export Plug-In . SVG Version: 6.00 Build 0)  -->
<svg version="1.2" baseProfile="tiny" id="Livello_1"
	 xmlns="http://www.w3.org/2000/svg" xmlns:xlink="http://www.w3.org/1999/xlink" x="0px" y="0px" viewBox="0 0 640 640"
	 xml:space="preserve">
<path fill="#E479DF" d="M613.69,351.79c0,147.53-119.6,267.13-267.13,267.13c-97.32,0-182.46-52.03-229.17-129.8
	c47,41.23,108.6,66.23,176.04,66.23c147.53,0,267.13-119.6,267.13-267.13c0-50.21-13.86-97.21-37.96-137.32
	C578.44,199.84,613.69,271.7,613.69,351.79z"/>
<path fill="#A566E3" d="M560.56,288.21c0,147.53-119.6,267.13-267.13,267.13c-67.44,0-129.04-24.99-176.04-66.23
	C93.3,449,79.44,402,79.44,351.79c0-147.53,119.6-267.13,267.13-267.13c67.44,0,129.04,24.99,176.04,66.23
	C546.7,191,560.56,238,560.56,288.21z"/>
<path fill="#68C5E0" d="M522.6,150.89c-47-41.23-108.6-66.23-176.04-66.23c-147.53,0-267.13,119.6-267.13,267.13
	C79.44,402,93.3,449,117.4,489.11c-55.84-48.95-91.08-120.81-91.08-200.9c0-147.53,119.6-267.13,267.13-267.13
	C390.76,21.09,475.9,73.11,522.6,150.89z"/>
<polygon fill="#FFFFFF" points="460.41,320.5 243.04,195 243.04,446 "/>
</svg>
