<?xml version="1.0" encoding="utf-8"?>
<!-- Generator: Adobe Illustrator 25.2.0, SVG Export Plug-In . SVG Version: 6.00 Build 0)  -->
<svg version="1.1" id="Livello_1" xmlns="http://www.w3.org/2000/svg" xmlns:xlink="http://www.w3.org/1999/xlink" x="0px" y="0px"
	 width="640px" height="640px" viewBox="0 0 640 640" style="enable-background:new 0 0 640 640;" xml:space="preserve">
<style type="text/css">
	.st0{fill:#E479DF;}
	.st1{fill:#A566E3;}
	.st2{fill:#68C5E0;}
	.st3{fill:#FFFFFF;}
</style>
<path class="st0" d="M613.7,351.8c0,147.5-119.6,267.1-267.1,267.1c-97.3,0-182.5-52-229.2-129.8c47,41.2,108.6,66.2,176,66.2
	c147.5,0,267.1-119.6,267.1-267.1c0-50.2-13.9-97.2-38-137.3C578.4,199.8,613.7,271.7,613.7,351.8z"/>
<path class="st1" d="M560.6,288.2c0,147.5-119.6,267.1-267.1,267.1c-67.4,0-129-25-176-66.2C93.3,449,79.4,402,79.4,351.8
	C79.4,204.3,199,84.7,346.6,84.7c67.4,0,129,25,176,66.2C546.7,191,560.6,238,560.6,288.2z"/>
<path class="st2" d="M522.6,150.9c-47-41.2-108.6-66.2-176-66.2C199,84.7,79.4,204.3,79.4,351.8c0,50.2,13.9,97.2,38,137.3
	c-55.8-49-91.1-120.8-91.1-200.9c0-147.5,119.6-267.1,267.1-267.1C390.8,21.1,475.9,73.1,522.6,150.9z"/>
<g>
	<path class="st3" d="M328.5,408.9h-54.1v-81.2h-62.6v81.2h-54.1V209.6h54.1v73.9h62.6v-73.9h54.1V408.9z"/>
	<path class="st3" d="M443,411.6c-25.7,0-45.7-6.8-59.9-20.5c-14.2-13.7-21.3-33.1-21.3-58.4c0-26.1,6.6-46.1,19.8-60
		c13.2-13.9,32-20.9,56.4-20.9c23.3,0,41.2,6.1,53.9,18.2s19,29.6,19,52.4v23.7h-95.3c0.4,8.6,3.5,15.4,9.5,20.3
		c6,4.9,14.1,7.4,24.3,7.4c9.4,0,18-0.9,25.8-2.7c7.9-1.8,16.4-4.8,25.6-9.1v38.3c-8.4,4.3-17,7.2-25.9,8.9
		C466,410.8,455.3,411.6,443,411.6z M439.9,288c-6.3,0-11.5,2-15.7,5.9c-4.2,4-6.7,10.2-7.4,18.6h45.8c-0.2-7.5-2.3-13.4-6.3-17.9
		C452.1,290.2,446.7,288,439.9,288z"/>
</g>
</svg>
