<?xml version="1.0" encoding="utf-8"?>
<!-- Generator: Adobe Illustrator 25.2.0, SVG Export Plug-In . SVG Version: 6.00 Build 0)  -->
<svg version="1.1" id="Livello_1" xmlns="http://www.w3.org/2000/svg" xmlns:xlink="http://www.w3.org/1999/xlink" x="0px" y="0px"
	 width="640px" height="640px" viewBox="0 0 640 640" style="enable-background:new 0 0 640 640;" xml:space="preserve">
<style type="text/css">
	.st0{fill:#E479DF;}
	.st1{fill:#A566E3;}
	.st2{fill:#68C5E0;}
	.st3{fill:#FFFFFF;}
</style>
<path class="st0" d="M613.7,351.8c0,147.5-119.6,267.1-267.1,267.1c-97.3,0-182.5-52-229.2-129.8c47,41.2,108.6,66.2,176,66.2
	c147.5,0,267.1-119.6,267.1-267.1c0-50.2-13.9-97.2-38-137.3C578.4,199.8,613.7,271.7,613.7,351.8z"/>
<path class="st1" d="M560.6,288.2c0,147.5-119.6,267.1-267.1,267.1c-67.4,0-129-25-176-66.2C93.3,449,79.4,402,79.4,351.8
	C79.4,204.3,199,84.7,346.6,84.7c67.4,0,129,25,176,66.2C546.7,191,560.6,238,560.6,288.2z"/>
<path class="st2" d="M522.6,150.9c-47-41.2-108.6-66.2-176-66.2C199,84.7,79.4,204.3,79.4,351.8c0,50.2,13.9,97.2,38,137.3
	c-55.8-49-91.1-120.8-91.1-200.9c0-147.5,119.6-267.1,267.1-267.1C390.8,21.1,475.9,73.1,522.6,150.9z"/>
<rect x="205.6" y="214.8" class="st3" width="101.1" height="101.1"/>
<rect x="332" y="214.8" class="st3" width="101.1" height="101.1"/>
<rect x="205.6" y="339.5" class="st3" width="101.1" height="101.1"/>
<rect x="332" y="339.5" class="st3" width="101.1" height="101.1"/>
</svg>
